<svg width="175" height="55" viewBox="0 0 175 55" fill="none" xmlns="http://www.w3.org/2000/svg">
<path d="M75.7862 7.02624H63.9922V14.8624H75.3876V19.2588H63.9922V30.6144H59.3936V2.62695H75.7862V7.02624Z" fill="#111111"/>
<path d="M93.2946 10.6226H97.6113V30.6116H93.2946V28.0517C91.9876 30.1047 89.9232 31.1298 87.0986 31.1298C84.8064 31.1298 82.9527 30.398 81.5404 28.9316C80.128 27.4651 79.4219 25.4549 79.4219 22.895V10.6226H83.7386V22.4565C83.7386 23.9486 84.1372 25.0961 84.9374 25.8962C85.7375 26.6963 86.8309 27.095 88.2148 27.095C89.7353 27.095 90.9597 26.6223 91.8936 25.677C92.8276 24.7316 93.2917 23.2851 93.2917 21.3403V10.6226H93.2946Z" fill="#111111"/>
<path d="M106.41 16.1127C106.41 16.7704 106.781 17.2915 107.518 17.6731C108.256 18.0546 109.144 18.4048 110.178 18.7238C111.211 19.0427 112.27 19.3701 113.355 19.7033C114.44 20.0364 115.346 20.6572 116.075 21.5598C116.801 22.4624 117.165 23.6014 117.165 24.9767C117.165 26.8959 116.425 28.4022 114.947 29.4956C113.466 30.589 111.61 31.1357 109.369 31.1357C107.396 31.1357 105.704 30.7229 104.292 29.8971C102.88 29.0713 101.855 27.9238 101.214 26.4574L104.933 24.299C105.625 26.2182 107.105 27.1778 109.369 27.1778C111.635 27.1778 112.766 26.4318 112.766 24.9397C112.766 24.299 112.399 23.7808 111.667 23.3793C110.932 22.9807 110.049 22.6191 109.016 22.3001C107.982 21.9812 106.923 21.6538 105.838 21.3206C104.753 20.9875 103.845 20.3867 103.11 19.521C102.376 18.6554 102.011 17.5563 102.011 16.2237C102.011 14.3843 102.712 12.9065 104.11 11.7874C105.508 10.6684 107.248 10.1074 109.326 10.1074C110.978 10.1074 112.45 10.4747 113.745 11.2065C115.038 11.9412 116.029 12.9606 116.724 14.2647L113.085 16.3034C112.393 14.7829 111.14 14.0255 109.326 14.0255C108.5 14.0255 107.809 14.2049 107.248 14.558C106.689 14.911 106.41 15.4293 106.41 16.1127Z" fill="#111111"/>
<path d="M123.842 22.457C124.161 23.9747 124.896 25.1421 126.04 25.9565C127.185 26.7709 128.586 27.1752 130.237 27.1752C132.53 27.1752 134.249 26.3494 135.394 24.6951L138.953 26.7737C136.98 29.6781 134.062 31.1303 130.198 31.1303C126.946 31.1303 124.32 30.1365 122.322 28.1519C120.323 26.1672 119.323 23.6529 119.323 20.6147C119.323 17.6306 120.308 15.1305 122.282 13.1174C124.255 11.1043 126.786 10.0991 129.879 10.0991C132.809 10.0991 135.215 11.1242 137.094 13.1772C138.973 15.2302 139.913 17.7217 139.913 20.6546C139.913 21.1073 139.859 21.7081 139.754 22.4541H123.842V22.457ZM123.802 18.9404H135.556C135.263 17.3145 134.591 16.0901 133.538 15.2615C132.484 14.4358 131.251 14.0229 129.839 14.0229C128.239 14.0229 126.906 14.4614 125.841 15.3412C124.773 16.2211 124.093 17.4199 123.802 18.9404Z" fill="#111111"/>
<path d="M153.544 6.26639C150.397 5.9731 148.826 7.29147 148.826 10.2243V10.623H153.544V14.7802H148.826V30.612H144.509V14.7802H141.471V10.623H144.509V10.2243C144.509 7.4794 145.275 5.39508 146.807 3.96851C148.339 2.54195 150.585 1.92405 153.544 2.10914V6.26639Z" fill="#111111"/>
<path d="M170.336 10.6226H174.934L167.258 31.2522C165.339 36.4232 162.087 38.8748 157.502 38.6072V34.5695C158.861 34.6492 159.954 34.3616 160.78 33.7096C161.606 33.0575 162.286 32.0353 162.819 30.6514L163.018 30.2528L154.541 10.6226H159.259L165.219 25.1331L170.336 10.6226Z" fill="#111111"/>
<path d="M65.5184 42.6361H61.1106V45.5632H65.3675V47.2062H61.1106V51.4489H59.3936V40.9902H65.5184V42.6361Z" fill="#888888"/>
<path d="M70.7318 51.646C69.6355 51.646 68.7044 51.2673 67.9385 50.5099C67.1725 49.7525 66.7881 48.8214 66.7881 47.7166C66.7881 46.6118 67.1725 45.6807 67.9385 44.9232C68.7044 44.1658 69.6355 43.7871 70.7318 43.7871C71.8366 43.7871 72.7705 44.1658 73.5337 44.9232C74.2968 45.6807 74.6755 46.6118 74.6755 47.7166C74.6755 48.8214 74.2939 49.7525 73.5337 50.5099C72.7734 51.2702 71.8394 51.646 70.7318 51.646ZM69.0746 49.4051C69.5216 49.8521 70.0769 50.0771 70.7318 50.0771C71.3867 50.0771 71.9419 49.8521 72.389 49.4051C72.836 48.958 73.061 48.3943 73.061 47.7166C73.061 47.0389 72.836 46.4751 72.389 46.028C71.9419 45.581 71.3867 45.356 70.7318 45.356C70.0769 45.356 69.5216 45.581 69.0746 46.028C68.6275 46.4751 68.4026 47.0389 68.4026 47.7166C68.4026 48.3943 68.6275 48.958 69.0746 49.4051Z" fill="#888888"/>
<path d="M77.9358 45.2362C78.343 44.3108 79.1118 43.8467 80.2365 43.8467V45.595C79.6186 45.5551 79.0805 45.7032 78.622 46.0364C78.1636 46.3695 77.9358 46.9191 77.9358 47.6879V51.4522H76.3213V43.9805H77.9358V45.2362Z" fill="#888888"/>
<path d="M89.4825 40.9931C90.4677 40.9931 91.2934 41.3205 91.954 41.9783C92.6175 42.6361 92.9478 43.4533 92.9478 44.4271C92.9478 45.3924 92.6175 46.2067 91.954 46.8702C91.2906 47.5336 90.4677 47.8639 89.4825 47.8639H87.3469V51.4489H85.6299V40.9902H89.4825V40.9931ZM89.4825 46.2523C89.9893 46.2523 90.4079 46.0814 90.7382 45.7369C91.0656 45.3924 91.2308 44.9567 91.2308 44.4299C91.2308 43.9032 91.0656 43.4675 90.7382 43.123C90.4079 42.7784 89.9922 42.6076 89.4825 42.6076H87.3469V46.2523H89.4825Z" fill="#888888"/>
<path d="M95.9836 45.2362C96.3908 44.3108 97.1596 43.8467 98.2844 43.8467V45.595C97.6665 45.5551 97.1283 45.7032 96.6699 46.0364C96.2114 46.3695 95.9836 46.9191 95.9836 47.6879V51.4522H94.3691V43.9805H95.9836V45.2362Z" fill="#888888"/>
<path d="M105.231 43.9832H106.846V51.4548H105.231V50.3785C104.625 51.2242 103.753 51.6485 102.617 51.6485C101.592 51.6485 100.715 51.2669 99.989 50.5067C99.2629 49.7435 98.8984 48.8153 98.8984 47.719C98.8984 46.6142 99.2629 45.6831 99.989 44.9257C100.715 44.1683 101.592 43.7896 102.617 43.7896C103.753 43.7896 104.625 44.2081 105.231 45.0453V43.9832ZM101.182 49.4275C101.629 49.8802 102.193 50.108 102.871 50.108C103.548 50.108 104.109 49.8831 104.559 49.4275C105.009 48.9719 105.231 48.4052 105.231 47.7162C105.231 47.0299 105.006 46.4576 104.559 46.0049C104.112 45.5521 103.548 45.3243 102.871 45.3243C102.193 45.3243 101.629 45.5521 101.182 46.0049C100.735 46.4576 100.51 47.0271 100.51 47.7162C100.51 48.4052 100.732 48.9747 101.182 49.4275Z" fill="#888888"/>
<path d="M114.853 43.983H116.436V51.1101C116.436 52.2463 116.063 53.1176 115.314 53.7241C114.568 54.3306 113.66 54.6353 112.595 54.6353C110.872 54.6353 109.691 54.0316 109.053 52.8271L110.443 52.0213C110.83 52.7873 111.559 53.1717 112.624 53.1717C113.321 53.1717 113.865 52.9895 114.261 52.625C114.654 52.2605 114.85 51.7565 114.85 51.1073V50.1961C114.244 51.0617 113.375 51.4946 112.251 51.4946C111.194 51.4946 110.303 51.1187 109.577 50.367C108.851 49.6152 108.486 48.7069 108.486 47.6391C108.486 46.5742 108.851 45.6658 109.577 44.9113C110.303 44.1596 111.194 43.7837 112.251 43.7837C113.375 43.7837 114.244 44.2165 114.85 45.0821V43.983H114.853ZM110.781 49.3163C111.234 49.7633 111.801 49.9883 112.478 49.9883C113.156 49.9883 113.72 49.7633 114.176 49.3163C114.628 48.8692 114.856 48.3111 114.856 47.642C114.856 46.9757 114.628 46.4176 114.176 45.9677C113.723 45.5206 113.156 45.2957 112.478 45.2957C111.801 45.2957 111.237 45.5206 110.781 45.9677C110.326 46.4147 110.101 46.9728 110.101 47.642C110.101 48.3111 110.329 48.8664 110.781 49.3163Z" fill="#888888"/>
<path d="M126.656 43.7871C127.502 43.7871 128.185 44.0605 128.703 44.61C129.221 45.1567 129.481 45.8942 129.481 46.8225V51.4553H127.866V46.9278C127.866 46.4096 127.735 46.0081 127.479 45.7262C127.22 45.4415 126.867 45.2991 126.42 45.2991C125.921 45.2991 125.525 45.4642 125.232 45.7917C124.939 46.1192 124.791 46.6146 124.791 47.2695V51.4524H123.176V46.925C123.176 46.4067 123.054 46.0053 122.809 45.7234C122.564 45.4386 122.22 45.2962 121.77 45.2962C121.283 45.2962 120.884 45.4642 120.574 45.7974C120.266 46.1305 120.11 46.6232 120.11 47.2695V51.4524H118.495V43.9807H120.11V44.8777C120.588 44.1516 121.3 43.7871 122.245 43.7871C123.202 43.7871 123.908 44.1801 124.367 44.9659C124.868 44.1829 125.631 43.7871 126.656 43.7871Z" fill="#888888"/>
<path d="M137.308 43.9832H138.923V51.4548H137.308V50.3785C136.702 51.2242 135.83 51.6485 134.694 51.6485C133.669 51.6485 132.792 51.2669 132.066 50.5067C131.34 49.7435 130.976 48.8153 130.976 47.719C130.976 46.6142 131.34 45.6831 132.066 44.9257C132.792 44.1683 133.669 43.7896 134.694 43.7896C135.83 43.7896 136.702 44.2081 137.308 45.0453V43.9832ZM133.259 49.4275C133.706 49.8802 134.27 50.108 134.948 50.108C135.625 50.108 136.186 49.8831 136.636 49.4275C137.086 48.9719 137.308 48.4052 137.308 47.7162C137.308 47.0299 137.083 46.4576 136.636 46.0049C136.189 45.5521 135.625 45.3243 134.948 45.3243C134.27 45.3243 133.706 45.5521 133.259 46.0049C132.812 46.4576 132.587 47.0271 132.587 47.7162C132.587 48.4052 132.812 48.9747 133.259 49.4275Z" fill="#888888"/>
<path d="M145.152 45.5347H143.298V49.1196C143.298 49.4271 143.367 49.6492 143.506 49.7831C143.646 49.9169 143.851 49.9909 144.127 50.008C144.4 50.0223 144.742 50.0194 145.149 49.9995V51.4488C143.913 51.5969 143.028 51.4915 142.49 51.1271C141.952 50.7626 141.684 50.0934 141.684 49.1168V45.5318H140.309V43.9771H141.684V42.3626L143.298 41.8843V43.9771H145.152V45.5347Z" fill="#888888"/>
<path d="M148.327 42.5568C148.122 42.7618 147.88 42.8643 147.604 42.8643C147.328 42.8643 147.083 42.7618 146.881 42.5568C146.676 42.3517 146.573 42.1097 146.573 41.8335C146.573 41.5545 146.673 41.3124 146.872 41.1103C147.072 40.9052 147.316 40.8027 147.604 40.8027C147.892 40.8027 148.136 40.9052 148.336 41.1103C148.535 41.3153 148.635 41.5573 148.635 41.8335C148.632 42.1097 148.529 42.3517 148.327 42.5568ZM146.795 51.4521V43.9805H148.41V51.4521H146.795Z" fill="#888888"/>
<path d="M153.983 51.646C152.858 51.646 151.918 51.2673 151.167 50.5099C150.415 49.7525 150.039 48.8214 150.039 47.7166C150.039 46.6004 150.415 45.6664 151.167 44.9147C151.918 44.163 152.858 43.7871 153.983 43.7871C154.709 43.7871 155.372 43.9608 155.97 44.311C156.568 44.6613 157.015 45.1282 157.314 45.7148L155.925 46.5206C155.754 46.1619 155.498 45.88 155.156 45.6778C154.814 45.4756 154.416 45.3703 153.969 45.3703C153.311 45.3703 152.761 45.5952 152.317 46.0423C151.873 46.4893 151.654 47.0474 151.654 47.7166C151.654 48.3829 151.876 48.941 152.317 49.3909C152.758 49.8408 153.311 50.0629 153.969 50.0629C154.407 50.0629 154.803 49.9575 155.156 49.7496C155.509 49.5418 155.777 49.2627 155.956 48.9125L157.346 49.7041C157.027 50.302 156.568 50.7747 155.97 51.1221C155.372 51.4695 154.709 51.646 153.983 51.646Z" fill="#888888"/>
<path d="M169.563 51.4523L168.826 49.3452H164.378L163.646 51.4523H161.778L165.574 40.9937H167.635L171.417 51.4523H169.563ZM164.948 47.7335H168.262L166.61 43.0125L164.948 47.7335Z" fill="#888888"/>
<path d="M172.716 40.9937H174.433V51.4523H172.716V40.9937Z" fill="#888888"/>
<path d="M22.5375 29.1733C22.5375 29.1733 11.8055 22.6584 6.95628 19.8337C6.8253 19.7569 6.70286 19.6316 6.6032 19.4921C6.38395 17.9573 5.11684 16.7642 3.55075 16.6589C3.4995 16.6532 3.44824 16.6532 3.39699 16.6503C3.37136 16.6503 3.34858 16.6475 3.32296 16.6475C3.31441 16.6475 3.30587 16.6475 3.30018 16.6475C3.26886 16.6475 3.23753 16.6503 3.20621 16.6532C1.42372 16.713 0 18.168 0 19.9619C0 19.9818 0.00284696 20.0017 0.00284696 20.0217C0.00284696 20.0986 0.0113895 20.1754 0.014237 20.2523C0.0170844 20.2751 0.0170845 20.2979 0.019932 20.3207C0.0654909 20.9044 0.253421 21.4739 0.597961 21.938C0.811519 22.2227 1.07633 22.4591 1.37246 22.647C1.91917 23.0428 2.59117 23.282 3.31726 23.282C3.75862 23.282 4.18004 23.1937 4.56729 23.0371C4.62708 23.0542 4.68118 23.0741 4.72959 23.1026C9.28833 25.7137 13.8357 28.3476 18.3973 30.9558C18.8159 31.195 18.9468 31.4598 18.944 31.9211C18.9241 35.264 18.9212 38.6069 18.944 41.9498C18.9468 42.2146 19.0921 42.5905 19.2971 42.7186C20.2823 43.3422 21.3074 43.9003 22.5175 44.595C22.5175 44.0967 22.5175 43.7892 22.5175 43.4817C22.509 39.2077 22.5375 29.1733 22.5375 29.1733Z" fill="#0021F3"/>
<path d="M43.7118 9.46387C41.9806 9.46387 40.5625 10.7879 40.4088 12.4793C40.2749 12.6843 40.1041 12.8666 39.919 12.9776C35.4371 15.5944 30.941 18.1884 26.4307 20.754C26.183 20.8963 25.7103 20.8792 25.4569 20.7369C22.5326 19.0825 19.1897 16.9782 16.2739 15.3097C16.0632 15.1901 13.8678 16.7932 12.7402 17.4509C13.0079 17.6389 13.1503 17.7528 13.3069 17.8439C17.1965 20.082 25.9039 25.2643 25.9039 25.2643C25.9039 25.2643 36.7242 18.8917 41.6588 16.0699C41.9208 15.9219 42.2824 15.9247 42.607 15.9133C42.9544 16.0358 43.3245 16.1069 43.7118 16.1069C45.5455 16.1069 47.0319 14.6206 47.0319 12.7868C47.0319 10.9502 45.5455 9.46387 43.7118 9.46387Z" fill="#0021F3"/>
<path d="M37.5726 6.76725C33.7257 4.54055 29.8817 2.31101 26.0205 0.107094C25.7927 -0.0210405 25.3713 -0.0409709 25.1521 0.0843163C22.9482 1.32295 20.767 2.60714 18.5773 3.8714C14.9041 5.99559 11.2253 8.11123 7.55207 10.2354C6.42733 10.8846 5.30544 11.5424 4.04688 12.277C5.23995 12.969 6.28496 13.5869 7.34705 14.1734C7.48088 14.2475 7.74 14.2104 7.88522 14.1279C10.5476 12.6016 13.2099 11.0726 15.8523 9.50933C16.3934 9.18757 16.8005 9.21889 17.3273 9.54065C18.8478 10.4718 20.3912 11.3716 21.9544 12.2286C22.1879 12.3568 22.3957 12.4877 22.5837 12.6387C22.6919 14.3756 24.1298 15.7509 25.8924 15.7509C27.7261 15.7509 29.2125 14.2645 29.2125 12.4308C29.2125 10.597 27.7261 9.11069 25.8924 9.11069C25.3457 9.11069 24.8303 9.24452 24.3747 9.48085C23.549 9.05943 22.7346 8.60954 21.9259 8.1511C21.3337 7.8151 20.767 7.44209 20.1463 7.06053C21.8519 6.07247 23.4578 5.1499 25.0496 4.2074C25.3998 3.99954 25.6874 3.96822 26.049 4.17893C28.5007 5.61973 35.4626 9.58621 35.4626 9.58621C35.4626 9.58621 38.1648 7.8692 38.7856 7.49049C38.3044 7.2029 37.9427 6.9808 37.5726 6.76725Z" fill="#0021F3"/>
<path d="M50.2033 18.5411C50.2033 18.3019 50.2033 18.0599 50.2033 17.6641C49.1525 18.2535 46.7806 19.6516 46.7806 19.6516C46.7806 19.6516 46.6753 26.3203 46.6383 29.3442C46.6354 29.6404 46.4276 30.0561 46.1855 30.2042C44.3916 31.2919 42.6091 32.4081 40.7953 33.4616C40.7213 33.5043 40.6501 33.5414 40.5789 33.5727C40.0607 33.2395 39.4485 33.0459 38.7879 33.0459C36.9541 33.0459 35.4678 34.5323 35.4678 36.366C35.4678 38.1998 36.9541 39.6861 38.7879 39.6861C40.4707 39.6861 41.8574 38.4333 42.0738 36.8074C42.1336 36.7988 42.1877 36.7874 42.2219 36.7675C43.3609 36.0813 44.5141 35.4178 45.6644 34.7544C45.9577 34.5835 46.2653 34.4355 46.6981 34.2048C46.6981 34.612 46.6981 34.8341 46.6981 35.0562C46.6952 36.5568 46.6354 38.0602 46.7151 39.558C46.7522 40.2841 46.4446 40.6201 45.8922 40.9333C43.0135 42.5706 40.1404 44.2192 37.2759 45.8793C37.1278 45.9647 36.9598 46.1754 36.957 46.3292C36.9314 47.5707 36.9427 48.815 36.9427 50.1789C37.9935 49.581 38.9473 49.0428 39.8955 48.4932C43.0533 46.6595 46.1941 44.8001 49.3746 43.0062C49.9897 42.6589 50.2403 42.32 50.2374 41.6024C50.2061 33.9144 50.2089 26.2263 50.2033 18.5411Z" fill="#0021F3"/>
<path d="M41.5609 22.2539C41.3872 22.2624 28.4086 29.1732 28.4086 29.1732C28.4086 29.1732 28.2975 42.7839 28.269 48.5357C28.269 48.6439 28.2463 48.7578 28.2149 48.8717C27.2838 49.4583 26.6631 50.4948 26.6631 51.6793C26.6631 53.5131 28.1494 54.9994 29.9832 54.9994C31.8169 54.9994 33.3033 53.5131 33.3033 51.6793C33.3033 50.5745 32.7623 49.5978 31.9308 48.9942C31.8995 48.8888 31.8767 48.7835 31.8739 48.6838C31.8312 46.9782 31.8511 45.2726 31.8483 43.567C31.8426 40.1102 31.8283 35.9501 31.8483 32.4933C31.8511 32.2028 31.9935 31.79 32.2099 31.6476C33.1325 31.0439 39.0523 28.0257 41.0341 26.8582C41.2448 26.7329 41.5324 26.4966 41.5381 26.303C41.5836 25.0843 41.5609 23.5068 41.5609 22.2539Z" fill="#0021F3"/>
<path d="M22.5347 51.5683C22.5546 51.0416 22.3582 50.7511 21.9168 50.5005C19.2772 48.9942 16.6576 47.4481 14.0095 45.956C13.6137 45.7339 13.5311 45.4948 13.534 45.1018C13.5425 43.0545 13.5482 41.01 13.5283 38.9627C13.5254 38.809 13.5368 38.6666 13.5596 38.5299C14.4594 37.9348 15.0516 36.9183 15.0516 35.7594C15.0516 34.1847 13.9554 32.8692 12.4833 32.5275C12.4576 32.5218 12.432 32.5133 12.4064 32.5076C12.395 32.5048 12.3864 32.5047 12.3751 32.5019C12.1643 32.4592 11.9508 32.4393 11.7344 32.4393H11.7315C11.7287 32.4393 11.7287 32.4393 11.7258 32.4393C11.6262 32.4393 11.5237 32.445 11.424 32.4535C11.4041 32.4563 11.3813 32.4563 11.3614 32.4592C11.293 32.4677 11.2218 32.4791 11.1535 32.4905C11.1051 32.4991 11.0567 32.5076 11.0083 32.519C10.9855 32.5247 10.9627 32.5304 10.9428 32.5361C9.4906 32.892 8.41142 34.1961 8.41142 35.7565C8.41142 36.8841 8.97522 37.8807 9.83514 38.4787C9.93196 38.9001 9.92341 39.3329 9.92911 39.7913C9.93765 40.8136 9.93196 41.8386 9.92626 42.8609C9.92626 43.0517 9.90063 43.2424 9.88355 43.4474C9.75826 43.4247 9.68423 43.4304 9.63013 43.399C8.06973 42.5021 6.52073 41.5881 4.94894 40.7111C4.57878 40.506 4.53037 40.2441 4.53037 39.8796C4.53606 36.7645 4.56454 29.458 4.56454 29.458C4.56454 29.458 1.86517 27.7922 0.996702 27.2769C0.953991 27.4221 0.931212 27.4619 0.931212 27.5047C0.925517 32.3709 0.916974 37.2372 0.939754 42.1035C0.939754 42.3426 1.19318 42.6672 1.41812 42.8011C3.3316 43.9429 5.26501 45.0534 7.19557 46.1667C11.6404 48.7323 16.0853 51.3007 20.5301 53.8634C21.1423 54.2164 21.7631 54.5496 22.5176 54.9682C22.5233 53.7324 22.492 52.6504 22.5347 51.5683Z" fill="#0021F3"/>
</svg>
